# xmcd
#
# Track frame offsets: 
#        150
#        18847
#        32527
#        48723
#        66371
#        80865
#        100345
#        115592
#        130793
#        146823
#        164199
#        181022
#        197962
#        213562
#        230800
#        249221
#        291236
#
# Disc length: 3891 seconds
#
# Revision: 0
# Processed by: cddbd v1.5.2PL0 Copyright (c) Steve Scherf et al.
# Submitted via: ExactAudioCopyFreeDBPlugin 1.0
#
DISCID=020f3111
DTITLE=Ms. Triniti - The Naked Truth
DYEAR=2007
DGENRE=Hip-Hop
TTITLE0=Burnin' (Woy Yoy Yoy)
TTITLE1=Over My Dead Body (OMDB)
TTITLE2=If I Was Ur Girl
TTITLE3=Naked Truth (This Is My Life)
TTITLE4=Sweet Thing
TTITLE5=Neva Gonna Know (Feat. Da'Ville)
TTITLE6=Move Up On Me
TTITLE7=Boom Bam (Feat. E-Dee)
TTITLE8=I Don't Wanna Run
TTITLE9=Can't Stop Her
TTITLE10=U Know (Feat. E-Dee)
TTITLE11=Give Yuh Love
TTITLE12=Coulda Coulda Coulda
TTITLE13=Let Go
TTITLE14=The Show Is Over
TTITLE15=All Of Me Is You
TTITLE16=DATA
EXTD=
EXTT0=
EXTT1=
EXTT2=
EXTT3=
EXTT4=
EXTT5=
EXTT6=
EXTT7=
EXTT8=
EXTT9=
EXTT10=
EXTT11=
EXTT12=
EXTT13=
EXTT14=
EXTT15=
EXTT16=
PLAYORDER=
